ply
format ascii 1.0
comment VCGLIB generated
element vertex 12
property float x
property float y
property float z
element face 20
property list uchar int vertex_indices
end_header
8.8 12.3 -2 
6 0 0 
6 14.5 0 
8.8 3 -2 
0 14.5 0 
0 0 0 
6 0 -6.2 
0 0 -6.2 
8.8 3 -4.2 
8.8 12.3 -4.2 
6 14.5 -6.2 
0 14.5 -6.2 
3 0 1 2 
3 0 1 3 
3 4 1 2 
3 4 1 5 
3 6 1 5 
3 6 7 5 
3 6 1 3 
3 6 8 3 
3 9 0 2 
3 9 10 2 
3 9 6 8 
3 9 6 10 
3 9 0 3 
3 9 8 3 
3 11 6 7 
3 11 6 10 
3 11 4 5 
3 11 7 5 
3 11 4 2 
3 11 10 2 
