ply
format ascii 1.0
comment VCGLIB generated
element vertex 16
property float x
property float y
property float z
element face 28
property list uchar int vertex_indices
end_header
0 5.5 4.5 
-3.889 3.889 -4.5 
0 5.5 -4.5 
-3.889 3.889 4.5 
3.889 3.889 4.5 
3.889 3.889 -4.5 
5.5 0 -4.5 
5.5 0 4.5 
3.889 -3.889 4.5 
3.889 -3.889 -4.5 
-3.889 -3.889 -4.5 
-0 -5.5 -4.5 
-5.5 0 -4.5 
-5.5 0 4.5 
-3.889 -3.889 4.5 
-0 -5.5 4.5 
3 0 1 2 
3 0 1 3 
3 4 5 6 
3 4 7 6 
3 4 5 2 
3 4 0 2 
3 8 9 6 
3 8 7 6 
3 10 1 2 
3 10 5 2 
3 10 9 11 
3 10 5 6 
3 10 1 12 
3 10 9 6 
3 13 1 12 
3 13 1 3 
3 13 10 12 
3 13 10 14 
3 15 0 3 
3 15 13 14 
3 15 4 0 
3 15 4 7 
3 15 8 7 
3 15 13 3 
3 15 10 11 
3 15 10 14 
3 15 9 11 
3 15 8 9 
