ply
format ascii 1.0
comment VCGLIB generated
element vertex 16
property float x
property float y
property float z
element face 28
property list uchar int vertex_indices
end_header
0 6.75 5 
-4.773 4.773 -5 
0 6.75 -5 
-4.773 4.773 5 
-4.773 -4.773 -5 
4.773 4.773 -5 
4.773 -4.773 -5 
-0 -6.75 -5 
6.75 0 -5 
-6.75 0 -5 
-6.75 0 5 
-4.773 -4.773 5 
-0 -6.75 5 
4.773 4.773 5 
6.75 0 5 
4.773 -4.773 5 
3 0 1 2 
3 0 1 3 
3 4 1 2 
3 4 5 2 
3 4 6 7 
3 4 5 8 
3 4 1 9 
3 4 6 8 
3 10 1 9 
3 10 1 3 
3 10 4 9 
3 10 4 11 
3 12 4 7 
3 12 4 11 
3 13 5 8 
3 13 14 8 
3 13 5 2 
3 13 0 2 
3 15 0 3 
3 15 10 11 
3 15 13 0 
3 15 10 3 
3 15 12 11 
3 15 13 14 
3 15 6 8 
3 15 14 8 
3 15 6 7 
3 15 12 7 
