ply
format ascii 1.0
comment VCGLIB generated
element vertex 32
property float x
property float y
property float z
element face 60
property list uchar int vertex_indices
end_header
3.118 1.292 5 
3.118 1.292 -5 
3.375 0 -5 
3.375 0 5 
-1.292 3.118 5 
-1.292 3.118 -5 
-2.386 2.386 -5 
-2.386 2.386 5 
2.386 -2.386 5 
1.292 -3.118 -5 
2.386 -2.386 -5 
1.292 -3.118 5 
-3.118 1.292 5 
-3.118 1.292 -5 
-3.375 0 -5 
-3.375 0 5 
2.386 2.386 5 
1.292 3.118 -5 
2.386 2.386 -5 
1.292 3.118 5 
0 3.375 5 
0 3.375 -5 
-0 -3.375 5 
-0 -3.375 -5 
-1.292 -3.118 -5 
3.118 -1.292 -5 
-3.118 -1.292 -5 
-2.386 -2.386 -5 
-1.292 -3.118 5 
-2.386 -2.386 5 
3.118 -1.292 5 
-3.118 -1.292 5 
3 0 1 2 
3 0 3 2 
3 4 5 6 
3 4 6 7 
3 8 9 10 
3 8 9 11 
3 12 13 6 
3 12 6 7 
3 12 13 14 
3 12 15 14 
3 16 17 18 
3 16 17 19 
3 16 1 18 
3 16 0 1 
3 20 17 21 
3 20 17 19 
3 20 5 21 
3 20 4 5 
3 22 9 23 
3 22 9 11 
3 24 13 6 
3 24 5 6 
3 24 25 10 
3 24 26 27 
3 24 1 18 
3 24 17 18 
3 24 1 2 
3 24 13 14 
3 24 5 21 
3 24 17 21 
3 24 25 2 
3 24 9 10 
3 24 9 23 
3 24 26 14 
3 24 22 28 
3 24 22 23 
3 24 28 29 
3 24 27 29 
3 30 25 2 
3 30 3 2 
3 30 25 10 
3 30 8 10 
3 31 12 15 
3 31 30 8 
3 31 16 0 
3 31 20 4 
3 31 22 28 
3 31 0 3 
3 31 4 7 
3 31 28 29 
3 31 8 11 
3 31 12 7 
3 31 16 19 
3 31 20 19 
3 31 22 11 
3 31 30 3 
3 31 26 27 
3 31 27 29 
3 31 15 14 
3 31 26 14 
